<svg xmlns="http://www.w3.org/2000/svg" viewBox="0 0 22.77 22.77"><defs><style>.cls-1{fill:#fff;fill-rule:evenodd;}</style></defs><title>facebook</title><g id="Capa_2" data-name="Capa 2"><g id="Capa_1-2" data-name="Capa 1"><path class="cls-1" d="M11.39,0A11.39,11.39,0,1,1,0,11.39,11.38,11.38,0,0,1,11.39,0ZM15,11.89H12.55v6.32H8.61V11.89H7.1V10L8.69,9V8.8a4.66,4.66,0,0,1,.92-3.25,3.87,3.87,0,0,1,3-1,8.58,8.58,0,0,1,1.48.13,10.63,10.63,0,0,1,1.63.42l-.84,2.55a5.16,5.16,0,0,0-1.43-.21.77.77,0,0,0-.65.28,1.52,1.52,0,0,0-.21.91v.3H15Z"/></g></g></svg>