<svg xmlns="http://www.w3.org/2000/svg" viewBox="0 0 21.11 21.12"><defs><style>.cls-1{fill:#fff;fill-rule:evenodd;}</style></defs><title>instagram</title><g id="Capa_2" data-name="Capa 2"><g id="Capa_1-2" data-name="Capa 1"><path class="cls-1" d="M10.56,0A10.56,10.56,0,1,1,0,10.56,10.55,10.55,0,0,1,10.56,0ZM5.9,4.23h9.32A1.66,1.66,0,0,1,16.88,5.9v9.32a1.66,1.66,0,0,1-1.66,1.66H5.9a1.66,1.66,0,0,1-1.67-1.66V5.9A1.67,1.67,0,0,1,5.9,4.23Zm8.67,1.41a.76.76,0,0,0,0,1.52.76.76,0,0,0,0-1.52Zm-4,1.66a3.26,3.26,0,1,0,3.26,3.26A3.26,3.26,0,0,0,10.56,7.3Z"/></g></g></svg>