<svg xmlns="http://www.w3.org/2000/svg" viewBox="0 0 277.58 50.48"><defs><style>.cls-1,.cls-2{fill:#fff;}.cls-2{fill-rule:evenodd;}</style></defs><title>logo</title><g id="Capa_2" data-name="Capa 2"><g id="Capa_1-2" data-name="Capa 1"><polygon class="cls-1" points="0 0 0 34.05 20.28 34.05 20.82 31.13 3.39 31.13 3.39 17.45 17 17.45 17 14.64 3.39 14.64 3.39 2.81 19.77 2.81 19.77 0 0 0"/><path class="cls-1" d="M25.69,14a5.71,5.71,0,0,0-2-4.22L21.09,11c1.37,1.25,1.7,2.87,1.7,7.79V34.05H25.9V16.31c2.46-2.75,4.65-3.89,7.38-3.89a6,6,0,0,1,4.53,2c1,1.14,1.32,2.54,1.32,5.46V34.05h3.11V18.37c0-5.19-3.28-8.6-8.25-8.6-3.23,0-5.57,1.19-8.3,4.22"/><path class="cls-1" d="M58.12,10.42H51.4l.33-6.81h-2l-.22,1.67c-.55,4.87-1,5.36-5,5.47l-1.36.05v2h5.13V26.37c0,3.19.11,3.95.55,5.14.71,1.83,2.79,3,5.47,3A12.93,12.93,0,0,0,60,33.23L59.49,31a9.87,9.87,0,0,1-4.27.92c-3.11,0-3.82-1.08-3.82-5.9V12.8h6.72V10.42"/><path class="cls-1" d="M99.05,10.75a9,9,0,0,0-3.82-1c-2.25,0-3.83,1.3-6.67,5.41-.11-2.81-.6-4.17-2.08-5.41L83.91,11c1.37,1.25,1.69,2.87,1.69,7.79V34.05h3.12V17.72c2.57-3.79,4.26-5.14,6.34-5.14a7.25,7.25,0,0,1,3.28.82l.71-2.65"/><path class="cls-1" d="M184.84,10.75a9,9,0,0,0-3.83-1c-2.24,0-3.82,1.3-6.67,5.41-.11-2.81-.6-4.17-2.07-5.41L169.69,11c1.38,1.25,1.7,2.87,1.7,7.79V34.05h3.12V17.72c2.56-3.79,4.26-5.14,6.34-5.14a7.22,7.22,0,0,1,3.27.82l.72-2.65"/><path class="cls-1" d="M222.38,34.05V18.48a9.62,9.62,0,0,0-1.21-5.41,8,8,0,0,0-6.77-3.3c-3.34,0-5.85,1.3-8.36,4.38-1.21-2.87-3.61-4.38-7.06-4.38A9.07,9.07,0,0,0,191.11,14a5.7,5.7,0,0,0-2-4.22L186.53,11c1.36,1.25,1.69,2.87,1.69,7.79V34.05h3.11V16.42c2.19-2.81,4.32-4.05,7.06-4.05a5.37,5.37,0,0,1,4.31,1.89c.77,1,1,2.16,1,4.87V34.05h3.12V18.53c0-.59,0-1.08-.05-2.11,2-2.81,4.19-4.05,6.93-4.05a5.61,5.61,0,0,1,4.92,2.7c.49.92.6,1.84.6,4.54V34.05h3.12"/><path class="cls-1" d="M237.51,14a5.71,5.71,0,0,0-2-4.22L232.91,11c1.37,1.25,1.7,2.87,1.7,7.79V34.05h3.12V16.31c2.45-2.75,4.64-3.89,7.37-3.89a6,6,0,0,1,4.54,2c1,1.14,1.32,2.54,1.32,5.46V34.05h3.11V18.37c0-5.19-3.28-8.6-8.26-8.6-3.23,0-5.57,1.19-8.3,4.22"/><path class="cls-2" d="M148.45,9.34a7.71,7.71,0,0,0-1.07-.06c-2.08,0-4,1.19-6,3.63a7.24,7.24,0,0,0-6.53-3.19,10.48,10.48,0,0,0-10.49,10.59A6.66,6.66,0,0,0,128.4,27c-3.45,2-4,2.48-4,3.84s.88,2,4,3.13c-7.23,2.28-9.93,4.38-9.93,8,0,3.78,4.78,6.7,11.12,6.7,7.29,0,13.08-3.83,13.08-8.66,0-2.53-1.64-4.09-6-5.77L130,31.67c-1.75-.59-2.32-1.08-2.32-1.78s.5-1.2,2.51-2.44c.76.06,1.57.12,1.95.12a10.3,10.3,0,0,0,10.31-10.66,8.6,8.6,0,0,0-.44-2.76A7.88,7.88,0,0,1,147.13,12h.81l.51-2.7m-14,2.38c2.76,0,4.52,2,4.52,5.19,0,4.92-2.89,8.76-6.6,8.76-2.89,0-4.59-2-4.59-5.29,0-4.87,3-8.66,6.67-8.66m-4.28,23c1.13.38,2,.7,2.51.92,5.6,2.06,6.67,2.87,6.67,4.91,0,3.31-3.9,5.8-9.06,5.8-4.89,0-8.54-2.06-8.54-4.71,0-2.92,2-4.54,8.42-6.92"/><path class="cls-2" d="M80.08,21.13l1.26-1.52c-.06-5.89-3.94-9.84-9.51-9.84-6.56,0-11.37,5.3-11.37,12.49S65.33,34.7,72.21,34.7a12.25,12.25,0,0,0,9.13-3.84L79.7,29.08a9.91,9.91,0,0,1-7,2.86c-5.24,0-9-4.06-9-9.68V21.13H80.08M63.85,18.91c.93-4.16,3.66-6.59,7.54-6.59s6.67,2.59,7,6.59Z"/><path class="cls-2" d="M109.3,9.82c-6.93,0-12,5.3-12,12.55s5,12.33,11.92,12.33,12-5.14,12-12.5c0-7.18-5-12.38-11.87-12.38m-.43,2.66c5.35,0,9.08,4.16,9.08,10.28,0,5.56-3.45,9.39-8.36,9.39-5.25,0-9.08-4.38-9.08-10.32,0-5.57,3.39-9.35,8.36-9.35"/><path class="cls-2" d="M165.87,21.13l1.25-1.52c-.05-5.89-3.93-9.84-9.51-9.84-6.55,0-11.36,5.3-11.36,12.49S151.11,34.7,158,34.7a12.24,12.24,0,0,0,9.13-3.84l-1.64-1.78a9.88,9.88,0,0,1-7,2.86c-5.24,0-9-4.06-9-9.68V21.13h16.4m-16.23-2.22c.93-4.16,3.65-6.59,7.54-6.59s6.66,2.59,7,6.59Z"/><path class="cls-2" d="M229.42,10.43H226.3V34.05h3.12Zm-1.48-8.36a2.12,2.12,0,0,0-2.19,2.17,2.19,2.19,0,0,0,4.37,0,2.11,2.11,0,0,0-2.18-2.17"/><path class="cls-2" d="M258,12.15V14.8a16.76,16.76,0,0,1,7.6-2.27c3.49,0,4.91,1.68,4.86,5.63V19.4l-.82.11A25.72,25.72,0,0,0,262.19,21a7.53,7.53,0,0,0-5.35,7.13c0,3.9,2.79,6.6,6.82,6.6a11.37,11.37,0,0,0,7.16-2.81c.5,1.84,1.81,2.7,4.16,2.7a7.6,7.6,0,0,0,1.69-.21l.39-2.17c-.44,0-.93.06-1.21.06-1.91,0-2.24-.66-2.24-4.7V18.42c0-3.24-.38-4.91-1.42-6.1a7.87,7.87,0,0,0-6.06-2.43A16.27,16.27,0,0,0,258,12.15m12.46,9.3v8.44c-2.24,1.62-3.93,2.26-5.85,2.26-2.78,0-4.7-1.72-4.7-4.21,0-3.89,2.68-5.51,10.55-6.49"/><path class="cls-1" d="M277.58,4.84a2.69,2.69,0,0,1-2.75,2.69,2.74,2.74,0,0,1-2.78-2.69,2.75,2.75,0,0,1,2.79-2.7,2.7,2.7,0,0,1,2.74,2.7m-4.7,0a1.95,1.95,0,1,0,3.89,0,1.95,1.95,0,1,0-3.89,0m1.6,1.25h-.77V3.65a6.93,6.93,0,0,1,1.1-.09,1.7,1.7,0,0,1,1,.2.61.61,0,0,1,.26.53c0,.25-.23.47-.56.56v0a.74.74,0,0,1,.5.63,3.09,3.09,0,0,0,.17.59h-.84a1.66,1.66,0,0,1-.19-.53.37.37,0,0,0-.42-.36h-.25Zm0-1.4h.22c.3,0,.47-.11.47-.3s-.17-.31-.44-.31l-.25,0Z"/><polygon class="cls-1" points="156.16 48.39 150.81 48.39 150.81 41.14 156.09 41.14 156.09 42.01 151.79 42.01 151.79 44.23 155.76 44.23 155.76 45.1 151.79 45.1 151.79 47.52 156.16 47.52 156.16 48.39"/><path class="cls-1" d="M160.53,44.62c0-.34-.13-.89-1.25-.89-.27,0-1.05.09-1.05.74,0,.44.28.54,1,.71l.89.22c1.1.27,1.48.68,1.48,1.39,0,1.09-.89,1.75-2.09,1.75-2.08,0-2.24-1.21-2.27-1.85h.86c0,.42.15,1.08,1.4,1.08.64,0,1.22-.25,1.22-.83,0-.43-.3-.57-1.06-.76l-1-.25c-.74-.19-1.23-.56-1.23-1.28,0-1.17,1-1.69,2-1.69,1.89,0,2,1.39,2,1.66Z"/><path class="cls-1" d="M162.71,43.11h.84v.75h0a1.78,1.78,0,0,1,1.57-.9c1.4,0,2.2,1.15,2.2,2.64,0,1.26-.53,2.94-2.33,2.94a1.59,1.59,0,0,1-1.4-.7h0v2.64h-.9Zm2.3,4.66c1,0,1.42-.87,1.42-2,0-.68-.07-2-1.44-2s-1.42,1.38-1.42,2.23c0,1.41.87,1.78,1.44,1.78"/><path class="cls-1" d="M170.75,43a2.52,2.52,0,0,1,2.45,2.78,2.47,2.47,0,1,1-4.9,0A2.52,2.52,0,0,1,170.75,43m0,4.8c1.27,0,1.54-1.31,1.54-2s-.27-2-1.54-2-1.54,1.31-1.54,2,.26,2,1.54,2"/><path class="cls-1" d="M175.42,48.39h-.89V43.11h.84V44h0a1.69,1.69,0,0,1,1.48-1,.71.71,0,0,1,.23,0v.92h-.33a1.34,1.34,0,0,0-1.36,1.41Z"/><path class="cls-1" d="M178,44.72c0-1.27.87-1.76,2.17-1.76.43,0,2,.12,2,1.47v3c0,.22.11.31.29.31a1.67,1.67,0,0,0,.29,0v.65a1.63,1.63,0,0,1-.49.1c-.78,0-.9-.4-.93-.81a2.41,2.41,0,0,1-1.91.86A1.52,1.52,0,0,1,177.68,47a1.6,1.6,0,0,1,1.61-1.66l1.46-.18c.21,0,.47-.1.47-.63s-.41-.86-1.24-.86a1.06,1.06,0,0,0-1.22,1Zm3.25,1c-.14.11-.37.2-1.47.33-.43.07-1.13.2-1.13.87s.3.91,1,.91c.82,0,1.63-.53,1.63-1.24Z"/><path class="cls-1" d="M186.79,44.62c0-.34-.13-.89-1.25-.89-.28,0-1,.09-1,.74,0,.44.27.54,1,.71l.89.22c1.09.27,1.48.68,1.48,1.39,0,1.09-.9,1.75-2.09,1.75-2.09,0-2.24-1.21-2.27-1.85h.85c0,.42.16,1.08,1.41,1.08.63,0,1.21-.25,1.21-.83,0-.43-.29-.57-1.05-.76l-1-.25c-.73-.19-1.22-.56-1.22-1.28,0-1.17,1-1.69,2-1.69,1.89,0,2,1.39,2,1.66Z"/><path class="cls-1" d="M196.43,48.39h-.84v-.73h0a1.58,1.58,0,0,1-1.5.88c-1.8,0-2.33-1.68-2.33-2.94,0-1.49.8-2.64,2.2-2.64a1.8,1.8,0,0,1,1.58.9h0V41.14h.89Zm-2.34-.62c.56,0,1.44-.37,1.44-1.78,0-.85-.14-2.23-1.42-2.23s-1.45,1.3-1.45,2c0,1.16.46,2,1.43,2"/><path class="cls-1" d="M202.34,46.73A2.17,2.17,0,0,1,200,48.54a2.37,2.37,0,0,1-2.36-2.64c0-1.64.79-2.94,2.53-2.94,1.53,0,2.27,1.21,2.27,3.08h-3.85c0,1.09.51,1.73,1.53,1.73a1.35,1.35,0,0,0,1.37-1Zm-.85-1.4c-.05-.82-.39-1.57-1.47-1.57a1.54,1.54,0,0,0-1.46,1.57Z"/><path class="cls-1" d="M208.31,41.14h3.19c1.36,0,1.88.84,1.66,1.83a2.07,2.07,0,0,1-1.29,1.51,1.37,1.37,0,0,1,.94,1.77,2.82,2.82,0,0,1-2.92,2.14h-3.12Zm-.38,6.41H210a1.65,1.65,0,0,0,1.81-1.32c.22-1-.63-1.22-1.43-1.22h-1.93Zm.71-3.34h1.77c.94,0,1.57-.29,1.76-1.17.14-.68-.19-1.06-1.28-1.06h-1.78Z"/><path class="cls-1" d="M214.36,44.72A2.31,2.31,0,0,1,216.92,43c.43,0,1.93.12,1.65,1.47l-.65,3c0,.22.05.31.23.31a1.92,1.92,0,0,0,.3,0l-.14.65a1.84,1.84,0,0,1-.51.1c-.78,0-.82-.4-.76-.81a3,3,0,0,1-2.09.86c-1,0-1.53-.61-1.33-1.52a2.05,2.05,0,0,1,1.95-1.66l1.51-.18c.21,0,.48-.1.59-.63s-.22-.86-1.06-.86a1.35,1.35,0,0,0-1.42,1Zm3,1c-.16.11-.4.2-1.53.33-.45.07-1.18.2-1.32.87s.1.91.76.91a1.93,1.93,0,0,0,1.9-1.24Z"/><path class="cls-1" d="M223.48,44.89c0-.71-.26-1.13-1-1.13-1.1,0-1.68,1-1.88,2s-.21,2,1,2a1.76,1.76,0,0,0,1.53-1.25H224a2.72,2.72,0,0,1-2.58,2c-1.48,0-2.13-1.12-1.8-2.64A3.28,3.28,0,0,1,222.76,43c1.39,0,1.7,1,1.57,1.93Z"/><path class="cls-1" d="M225.59,48.39h-.89l1.13-5.28h.88Zm.44-6.24.21-1h.89l-.21,1Z"/><polygon class="cls-1" points="228.03 48.39 227.14 48.39 228.69 41.14 229.57 41.14 228.03 48.39"/><polygon class="cls-1" points="230.47 48.39 229.59 48.39 231.13 41.14 232.02 41.14 230.47 48.39"/><path class="cls-1" d="M235.45,48.39l.16-.77v0a2.22,2.22,0,0,1-1.88.94c-.77,0-1.63-.37-1.37-1.63l.81-3.8h.89l-.74,3.5c-.19.87.19,1.16.77,1.16A2,2,0,0,0,235.91,46l.61-2.91h.89l-1.12,5.28Z"/><path class="cls-1" d="M241.62,44.62c.06-.34.06-.89-1.06-.89-.28,0-1.07.09-1.21.74-.09.44.16.54.81.71l.84.22c1,.27,1.34.68,1.19,1.39a2.37,2.37,0,0,1-2.46,1.75c-2.08,0-2-1.21-1.88-1.85h.86c-.06.42-.08,1.08,1.17,1.08.64,0,1.26-.25,1.39-.83.1-.43-.17-.57-.89-.76l-1-.25c-.7-.19-1.11-.56-.95-1.28A2.24,2.24,0,0,1,240.82,43c1.88,0,1.72,1.39,1.66,1.66Z"/><path class="cls-1" d="M250.12,44.89c0-.71-.26-1.13-1-1.13-1.09,0-1.67,1-1.87,2s-.22,2,1,2a1.74,1.74,0,0,0,1.52-1.25h.87a2.74,2.74,0,0,1-2.59,2c-1.48,0-2.12-1.12-1.79-2.64s1.4-2.94,3.15-2.94c1.39,0,1.7,1,1.57,1.93Z"/><polygon class="cls-1" points="252.24 48.39 251.35 48.39 252.89 41.14 253.78 41.14 252.24 48.39"/><path class="cls-1" d="M254.52,44.72A2.29,2.29,0,0,1,257.07,43c.42,0,1.94.12,1.65,1.47l-.65,3c0,.22.05.31.23.31a1.92,1.92,0,0,0,.3,0l-.14.65a1.85,1.85,0,0,1-.5.1c-.79,0-.82-.4-.77-.81a3,3,0,0,1-2.09.86A1.2,1.2,0,0,1,253.77,47a2.07,2.07,0,0,1,2-1.66l1.5-.18c.21,0,.48-.1.6-.63s-.23-.86-1.06-.86a1.36,1.36,0,0,0-1.43,1Zm3,1c-.16.11-.4.2-1.53.33-.45.07-1.17.2-1.31.87s.09.91.76.91a2,2,0,0,0,1.9-1.24Z"/><path class="cls-1" d="M263,48.39l.16-.77,0,0a2.21,2.21,0,0,1-1.87.94c-.78,0-1.64-.37-1.37-1.63l.81-3.8h.88l-.74,3.5c-.19.87.2,1.16.77,1.16A2,2,0,0,0,263.48,46l.61-2.91h.9l-1.13,5.28Z"/><path class="cls-1" d="M269.2,44.62c.06-.34.06-.89-1.06-.89-.28,0-1.07.09-1.21.74-.09.44.15.54.81.71l.84.22c1,.27,1.34.68,1.18,1.39a2.36,2.36,0,0,1-2.46,1.75c-2.09,0-2-1.21-1.88-1.85h.86c0,.42-.07,1.08,1.18,1.08a1.3,1.3,0,0,0,1.39-.83c.09-.43-.18-.57-.89-.76l-1-.25c-.7-.19-1.1-.56-1-1.28A2.25,2.25,0,0,1,268.39,43c1.89,0,1.72,1.39,1.66,1.66Z"/><path class="cls-1" d="M271.56,48.39h-.89l1.11-5.28h.9Zm.44-6.24.21-1h.88l-.21,1Z"/><path class="cls-1" d="M274,48.39h-.88l1.11-5.28h.89Zm.44-6.24.21-1h.89l-.22,1Z"/></g></g></svg>